<svg width="25" height="25" viewBox="0 0 25 25" fill="none" xmlns="http://www.w3.org/2000/svg">
<path d="M7.7792 20.1328H5.78255C2.72527 19.9145 1.35266 17.5643 1.35266 15.4741C1.35266 13.3839 2.72528 11.0234 5.73057 10.8154C6.15693 10.7738 6.53128 11.1066 6.56247 11.5433C6.59367 11.9697 6.27136 12.344 5.8346 12.3752C3.81721 12.5208 2.9125 14.0391 2.9125 15.4845C2.9125 16.93 3.81721 18.4482 5.8346 18.5938H7.7792C8.20555 18.5938 8.55912 18.9474 8.55912 19.3737C8.55912 19.8001 8.20555 20.1328 7.7792 20.1328Z" fill="white"/>
<path d="M17.3563 20.1328C17.3355 20.1328 17.3251 20.1328 17.3043 20.1328C16.8779 20.1328 16.4828 19.7792 16.4828 19.3529C16.4828 18.9057 16.8156 18.573 17.2523 18.573C18.5314 18.573 19.6753 18.1258 20.5696 17.3251C22.1918 15.9108 22.2958 13.8726 21.859 12.4376C21.4223 11.0129 20.2056 9.3803 18.0842 9.12032C17.741 9.07873 17.4706 8.81876 17.4083 8.47559C16.9923 5.97985 15.6509 4.25362 13.6127 3.62969C11.5121 2.97455 9.05791 3.61929 7.52926 5.22072C6.04222 6.77016 5.69906 8.94355 6.56217 11.3353C6.70776 11.7409 6.49983 12.188 6.09427 12.3336C5.68871 12.4792 5.24153 12.2712 5.09595 11.8656C4.04566 8.93314 4.52402 6.12543 6.40622 4.14963C8.33003 2.13224 11.4185 1.33151 14.0702 2.14263C16.5036 2.89135 18.2194 4.89835 18.8433 7.68527C20.9647 8.16362 22.6701 9.77546 23.3461 12.0008C24.0844 14.4238 23.4189 16.9195 21.5991 18.5002C20.4448 19.5401 18.9369 20.1328 17.3563 20.1328Z" fill="white"/>
<path d="M12.4999 23.1902C10.4097 23.1902 8.45473 22.0775 7.38364 20.2785C7.26925 20.1017 7.15486 19.8937 7.06127 19.6649C6.70771 18.9266 6.52051 18.0843 6.52051 17.2108C6.52051 13.9143 9.20343 11.2314 12.4999 11.2314C15.7964 11.2314 18.4793 13.9143 18.4793 17.2108C18.4793 18.0947 18.2921 18.9266 17.9178 19.6961C17.8346 19.8937 17.7202 20.1017 17.5954 20.2993C16.5451 22.0775 14.5901 23.1902 12.4999 23.1902ZM12.4999 12.7912C10.0665 12.7912 8.08035 14.7774 8.08035 17.2108C8.08035 17.8555 8.21554 18.4586 8.47551 19.0098C8.5587 19.1866 8.63148 19.3322 8.71467 19.4673C9.50499 20.8088 10.9504 21.6303 12.4895 21.6303C14.0285 21.6303 15.474 20.8088 16.2539 19.4881C16.3475 19.3322 16.4307 19.1866 16.4931 19.041C16.7739 18.469 16.909 17.8659 16.909 17.2212C16.9194 14.7774 14.9332 12.7912 12.4999 12.7912Z" fill="white"/>
<path d="M11.9072 19.0201C11.7096 19.0201 11.5121 18.9473 11.3561 18.7913L10.3265 17.7618C10.0249 17.4602 10.0249 16.9611 10.3265 16.6595C10.6281 16.3579 11.1272 16.3579 11.4288 16.6595L11.928 17.1587L13.5918 15.6196C13.9142 15.3285 14.4029 15.3492 14.6941 15.6612C14.9853 15.9732 14.9645 16.4723 14.6525 16.7635L12.4375 18.8121C12.2815 18.9473 12.0944 19.0201 11.9072 19.0201Z" fill="white"/>
</svg>
