<svg width="65" height="65" viewBox="0 0 65 65" fill="none" xmlns="http://www.w3.org/2000/svg">
<path d="M61.2083 46.1208L60.2507 45.9615C60.5239 44.014 60.6629 42.0499 60.6667 40.0833C60.7732 35.4825 59.7385 30.9269 57.6551 26.8235C55.5717 22.72 52.5045 19.1964 48.7273 16.5674C48.413 16.3607 48.045 16.2506 47.6688 16.2506C47.2927 16.2506 46.9247 16.3607 46.6104 16.5674C43.1613 18.9667 40.3027 22.1186 38.2505 25.7848C36.1982 29.4511 35.0061 33.5358 34.7642 37.7303C34.2502 37.5422 33.727 37.3802 33.1966 37.245L28.1667 35.9883V34.9841C28.8373 34.5659 29.4667 34.1326 30.0181 33.7415C30.303 33.54 30.5738 33.3493 30.8273 33.1782C31.7089 32.5792 32.4599 31.8078 33.0351 30.9105C33.6102 30.0132 33.9976 29.0087 34.1738 27.9576L34.5172 25.8993C35.4805 25.6852 36.3422 25.1493 36.9602 24.3799C37.5782 23.6105 37.9155 22.6535 37.9167 21.6667V15.1667C37.9167 11.1442 36.3188 7.28652 33.4745 4.44221C30.6302 1.59791 26.7725 0 22.75 0C18.7276 0 14.8698 1.59791 12.0255 4.44221C9.18125 7.28652 7.58333 11.1442 7.58333 15.1667V21.6667C7.58472 22.6533 7.9222 23.6101 8.54014 24.3793C9.1581 25.1485 10.0196 25.6842 10.9828 25.8982L11.3263 27.9565C11.5024 29.0078 11.8899 30.0124 12.4652 30.9097C13.0406 31.807 13.7919 32.5783 14.6738 33.1771C14.9262 33.3483 15.197 33.5389 15.4819 33.7404C16.0388 34.1315 16.6628 34.5648 17.3333 34.983V35.9873L12.3088 37.2428C4.71683 39.1419 0 44.7969 0 52V53.0833C0 53.9453 0.34241 54.7719 0.951903 55.3814C1.5614 55.9909 2.38805 56.3333 3.25 56.3333H30.3333V62.8333C30.3333 63.408 30.5616 63.9591 30.9679 64.3654C31.3743 64.7717 31.9254 65 32.5 65H33.93C34.364 65.0021 34.7886 64.8729 35.1479 64.6296C35.5073 64.3862 35.7848 64.0399 35.9439 63.6361L38.948 56.1221C39.0303 56.1535 39.1127 56.1817 39.1982 56.2055L39.8125 58.6452C39.9582 59.2231 40.2927 59.7358 40.763 60.102C41.2332 60.4682 41.8122 60.6669 42.4082 60.6667H44.4167V62.8333C44.4167 63.408 44.6449 63.9591 45.0513 64.3654C45.4576 64.7717 46.0087 65 46.5833 65H48.75C49.3246 65 49.8757 64.7717 50.2821 64.3654C50.6884 63.9591 50.9167 63.408 50.9167 62.8333V60.6667H52.9252C53.522 60.6678 54.1022 60.4694 54.5733 60.1029C55.0444 59.7364 55.3795 59.2229 55.5252 58.6441L56.1394 56.2055C56.225 56.1817 56.3073 56.1535 56.3897 56.1232L59.3927 63.6328C59.5512 64.0366 59.828 64.3832 60.1867 64.6271C60.5455 64.871 60.9695 65.001 61.4033 65H62.8333C63.408 65 63.9591 64.7717 64.3654 64.3654C64.7717 63.9591 65 63.408 65 62.8333V50.5917C65.0046 49.5168 64.6252 48.4757 63.9299 47.6559C63.2347 46.8361 62.2695 46.2917 61.2083 46.1208ZM47.6667 18.4622C50.5205 20.4485 52.9206 23.0177 54.7083 26H40.625C42.4126 23.0176 44.8127 20.4484 47.6667 18.4622ZM18.0841 38.0326L21.2258 41.1743L19.6408 42.7917L16.3908 38.4583L18.0841 38.0326ZM24.0305 45.5H21.4695L21.2149 44.2336L22.75 42.6985L24.2851 44.2336L24.0305 45.5ZM21.4305 47.6667H24.0706L25.6956 54.1667H19.8077L21.4305 47.6667ZM25.9101 42.7917L24.2851 41.1667L27.4192 38.0326L29.1254 38.4594L25.9101 42.7917ZM22.75 2.16667C26.1967 2.17039 29.5011 3.54123 31.9383 5.9784C34.3754 8.41556 35.7463 11.72 35.75 15.1667V17.9281C35.387 17.7122 34.9943 17.5508 34.5843 17.4493C34.4794 16.5522 34.0968 15.7104 33.49 15.0415C32.8832 14.3726 32.0826 13.9099 31.2 13.7183C28.6946 13.3933 26.2843 12.5502 24.1226 11.2428C23.7163 10.976 23.2409 10.8339 22.7549 10.8339C22.2688 10.8339 21.7934 10.976 21.3872 11.2428C19.2259 12.5504 16.8159 13.3935 14.3108 13.7183C13.4273 13.9089 12.6254 14.3711 12.0176 15.0401C11.4098 15.7092 11.0264 16.5515 10.9211 17.4493C10.5093 17.5503 10.1146 17.7117 9.75 17.9281V15.1667C9.75373 11.72 11.1246 8.41556 13.5617 5.9784C15.9989 3.54123 19.3033 2.17039 22.75 2.16667ZM15.8849 31.382C15.2467 30.948 14.7031 30.3891 14.2869 29.739C13.8708 29.089 13.5907 28.3614 13.4637 27.6001L12.9848 24.7379C12.9425 24.4852 12.812 24.2556 12.6165 24.09C12.4209 23.9243 12.1729 23.8334 11.9167 23.8333C11.342 23.8333 10.7909 23.6051 10.3846 23.1987C9.97827 22.7924 9.75 22.2413 9.75 21.6667C9.75 21.092 9.97827 20.5409 10.3846 20.1346C10.7909 19.7283 11.342 19.5 11.9167 19.5C12.204 19.5 12.4795 19.3859 12.6827 19.1827C12.8859 18.9795 13 18.704 13 18.4167C12.9404 17.8705 13.0681 17.3203 13.3622 16.8562C13.6562 16.392 14.0992 16.0416 14.6185 15.8622C17.4308 15.4921 20.1348 14.5386 22.5572 13.0628C22.6142 13.024 22.6811 13.0022 22.75 13C22.8186 13.002 22.8852 13.0239 22.9418 13.0628C25.3645 14.5387 28.0688 15.4922 30.8815 15.8622C31.4008 16.0416 31.8438 16.392 32.1378 16.8562C32.4319 17.3203 32.5596 17.8705 32.5 18.4167C32.5 18.704 32.6141 18.9795 32.8173 19.1827C33.0205 19.3859 33.296 19.5 33.5833 19.5C34.158 19.5 34.7091 19.7283 35.1154 20.1346C35.5217 20.5409 35.75 21.092 35.75 21.6667C35.75 22.2413 35.5217 22.7924 35.1154 23.1987C34.7091 23.6051 34.158 23.8333 33.5833 23.8333C33.3271 23.8334 33.0791 23.9243 32.8835 24.09C32.688 24.2556 32.5575 24.4852 32.5152 24.7379L32.0363 27.6001C31.9092 28.3612 31.6293 29.0888 31.2133 29.7387C30.7974 30.3887 30.2541 30.9477 29.6162 31.382C29.3507 31.5608 29.068 31.759 28.7701 31.9703C27.0638 33.1717 24.9427 34.6667 22.75 34.6667C20.5573 34.6667 18.4362 33.1717 16.7299 31.9703C16.432 31.759 16.1493 31.5608 15.8849 31.382ZM22.75 36.8333C23.8698 36.8136 24.9745 36.5717 26 36.1216V36.3848L22.75 39.6348L19.5 36.3848V36.1216C20.5255 36.5717 21.6302 36.8136 22.75 36.8333ZM2.16667 53.0833V52C2.16667 45.8391 6.25408 40.9912 12.8343 39.3445L14.1061 39.0271L17.8978 44.0787C18.2 44.4888 18.64 44.7762 19.1371 44.8879L19.4729 46.5573L17.5782 54.1537V54.1667H3.25C2.96268 54.1667 2.68713 54.0525 2.48397 53.8494C2.2808 53.6462 2.16667 53.3707 2.16667 53.0833ZM30.3333 50.5917V54.1667H27.9262L26.0271 46.5573L26.3629 44.8879C26.8549 44.7783 27.2912 44.4957 27.5925 44.0917L31.3928 39.0271L32.6668 39.3456C33.3493 39.5259 34.0177 39.7558 34.6667 40.0335C34.6667 40.0498 34.6667 40.0649 34.6667 40.0823C34.669 42.0491 34.8065 44.0135 35.0783 45.9615L34.1239 46.1197C33.0629 46.2913 32.0981 46.8361 31.4032 47.656C30.7082 48.4759 30.3288 49.5169 30.3333 50.5917ZM33.93 62.8333H32.5V50.5917C32.4972 50.031 32.6947 49.4878 33.057 49.06C33.4193 48.6321 33.9226 48.3478 34.476 48.2582L35.425 48.1C35.8102 50.1648 36.3498 52.1978 37.0392 54.1818C37.0897 54.3246 37.1501 54.4636 37.2201 54.5978L33.93 62.8333ZM42.4082 58.5C42.2947 58.4999 42.1844 58.4621 42.0948 58.3925C42.0051 58.3229 41.9412 58.2254 41.9131 58.1154L41.4646 56.3333H44.4167V58.5H42.4082ZM44.4167 47.6667V54.1667H40.0725C39.8563 54.1681 39.645 54.1015 39.4687 53.9763C39.2924 53.8511 39.1599 53.6736 39.0899 53.469C37.6131 49.16 36.8508 44.6384 36.8333 40.0833C36.7929 35.9627 37.6929 31.8871 39.4648 28.1667H55.8675C57.6402 31.8869 58.5405 35.9626 58.5 40.0833C58.4823 44.6422 57.719 49.1675 56.2402 53.4798C56.1693 53.6816 56.0373 53.8562 55.8625 53.9795C55.6878 54.1028 55.479 54.1686 55.2652 54.1678H50.9167V47.6667C50.9167 47.092 50.6884 46.5409 50.2821 46.1346C49.8757 45.7283 49.3246 45.5 48.75 45.5H46.5833C46.0087 45.5 45.4576 45.7283 45.0513 46.1346C44.6449 46.5409 44.4167 47.092 44.4167 47.6667ZM46.5833 62.8333V47.6667H48.75V62.8333H46.5833ZM52.9252 58.5H50.9167V56.3333H53.8688L53.4203 58.1143C53.3925 58.2246 53.3287 58.3224 53.239 58.3923C53.1493 58.4622 53.0389 58.5001 52.9252 58.5ZM62.8333 62.8333H61.4023L58.11 54.6C58.1789 54.4683 58.2383 54.3318 58.2877 54.1916C58.9799 52.2046 59.5216 50.1683 59.9083 48.1L60.8649 48.2593C61.417 48.35 61.9185 48.6348 62.2794 49.0624C62.6402 49.4899 62.8366 50.0322 62.8333 50.5917V62.8333Z" fill="#2145D1"/>
</svg>
