<svg width="65" height="65" viewBox="0 0 65 65" fill="none" xmlns="http://www.w3.org/2000/svg">
<g clip-path="url(#clip0_14_509)">
<path d="M63.1042 35.75H38.7292C38.2392 35.7539 37.7695 35.9466 37.4179 36.288C37.0664 36.6294 36.8601 37.0933 36.842 37.583C35.4484 37.0858 33.9796 36.8322 32.5 36.8334V34.9299C34.5808 34.1153 36.3912 32.7329 37.7251 30.9401C39.0591 29.1472 39.863 27.016 40.0454 24.7888C40.9836 24.5543 41.8166 24.0131 42.4123 23.2512C43.0079 22.4894 43.3321 21.5504 43.3334 20.5833V11.9167C43.3313 10.1501 42.7136 8.43955 41.5866 7.07922C40.4596 5.71888 38.8937 4.79388 37.1584 4.46334C37.5231 4.09597 37.7708 3.6287 37.8701 3.12059C37.9694 2.61248 37.9158 2.08634 37.7162 1.60867C37.5165 1.131 37.1798 0.723227 36.7484 0.4369C36.3171 0.150572 35.8106 -0.00146245 35.2929 1.06037e-05H24.9167C21.7573 0.00373778 18.7284 1.26044 16.4944 3.49444C14.2604 5.72844 13.0037 8.75733 13 11.9167V20.5833C13.0013 21.5504 13.3255 22.4894 13.9211 23.2512C14.5168 24.0131 15.3497 24.5543 16.2879 24.7888C16.4706 27.0159 17.2746 29.1471 18.6085 30.9398C19.9424 32.7326 21.7527 34.115 23.8334 34.9299V36.8334C22.1259 36.8325 20.4351 37.1682 18.8575 37.8212C17.2798 38.4742 15.8464 39.4317 14.6391 40.6391C13.4317 41.8464 12.4742 43.2798 11.8212 44.8575C11.1682 46.4351 10.8325 48.1259 10.8334 49.8334H2.16668C1.59205 49.8334 1.04095 50.0616 0.63462 50.468C0.228291 50.8743 1.8131e-05 51.4254 1.8131e-05 52V57.4167C-0.00302925 58.8093 0.378122 60.1758 1.10154 61.3658C1.82495 62.5557 2.86259 63.5231 4.1003 64.1615C5.33801 64.7998 6.72781 65.0844 8.1168 64.9838C9.50578 64.8833 10.8401 64.4016 11.973 63.5917C12.3786 64.035 12.872 64.3892 13.4218 64.6316C13.9716 64.8741 14.5658 64.9995 15.1667 65H62.8334C63.408 65 63.9591 64.7718 64.3654 64.3654C64.7717 63.9591 65 63.408 65 62.8334V37.6675C65.0023 37.162 64.804 36.6762 64.4486 36.3167C64.0932 35.9573 63.6097 35.7535 63.1042 35.75ZM39 37.9167H62.8334V57.4167H39V37.9167ZM24.9167 2.16668H35.2929C35.3827 2.16553 35.4709 2.19121 35.546 2.24043C35.6212 2.28965 35.68 2.36017 35.7149 2.44298C35.7498 2.52579 35.7592 2.61712 35.7419 2.70531C35.7246 2.79349 35.6814 2.87451 35.6179 2.93801L34.2182 4.33334H31.4167C31.1294 4.33334 30.8538 4.44748 30.6507 4.65065C30.4475 4.85381 30.3334 5.12936 30.3334 5.41668C30.3334 5.704 30.4475 5.97955 30.6507 6.18271C30.8538 6.38588 31.1294 6.50001 31.4167 6.50001H35.75C37.1861 6.50173 38.5628 7.07297 39.5783 8.08842C40.5937 9.10387 41.165 10.4806 41.1667 11.9167V14.2827C40.672 14.0985 40.1392 14.0407 39.6165 14.1144C39.0938 14.1882 38.5978 14.3913 38.1734 14.7052C37.8144 14.1849 37.3514 13.7448 36.8136 13.4125C36.2758 13.0802 35.675 12.863 35.0491 12.7747C33.0778 12.6391 31.1829 11.9591 29.575 10.8106C29.1874 10.4621 28.6846 10.2694 28.1634 10.2694C27.6422 10.2694 27.1395 10.4621 26.7519 10.8106C25.1446 11.9588 23.2505 12.6387 21.2799 12.7747C20.6542 12.8632 20.0536 13.0804 19.516 13.4127C18.9785 13.745 18.5156 14.185 18.1567 14.7052C17.7327 14.3918 17.2372 14.1891 16.7152 14.1153C16.1931 14.0415 15.6609 14.0991 15.1667 14.2827V11.9167C15.1698 9.33179 16.1981 6.85367 18.0259 5.02587C19.8537 3.19807 22.3318 2.16983 24.9167 2.16668ZM18.4167 23.8333C18.4167 23.546 18.3025 23.2705 18.0994 23.0673C17.8962 22.8641 17.6207 22.75 17.3334 22.75C16.7587 22.75 16.2076 22.5217 15.8013 22.1154C15.395 21.7091 15.1667 21.158 15.1667 20.5833V17.3333C15.1667 17.046 15.2808 16.7705 15.484 16.5673C15.6872 16.3641 15.9627 16.25 16.25 16.25C16.5373 16.25 16.8129 16.3641 17.0161 16.5673C17.2192 16.7705 17.3334 17.046 17.3334 17.3333C17.3334 17.6207 17.4475 17.8962 17.6507 18.0994C17.8538 18.3025 18.1294 18.4167 18.4167 18.4167C18.704 18.4167 18.9796 18.3025 19.1827 18.0994C19.3859 17.8962 19.5 17.6207 19.5 17.3333C19.5003 16.7486 19.7107 16.1835 20.0929 15.741C20.4752 15.2985 21.0037 15.0082 21.5822 14.9229C23.9668 14.7446 26.251 13.8896 28.1667 12.4583C30.082 13.8894 32.3659 14.7444 34.7501 14.9229C35.3288 15.0079 35.8576 15.2982 36.24 15.7407C36.6225 16.1832 36.8331 16.7485 36.8334 17.3333C36.8334 17.6207 36.9475 17.8962 37.1507 18.0994C37.3538 18.3025 37.6294 18.4167 37.9167 18.4167C38.204 18.4167 38.4796 18.3025 38.6827 18.0994C38.8859 17.8962 39 17.6207 39 17.3333C39 17.046 39.1142 16.7705 39.3173 16.5673C39.5205 16.3641 39.796 16.25 40.0834 16.25C40.3707 16.25 40.6462 16.3641 40.8494 16.5673C41.0525 16.7705 41.1667 17.046 41.1667 17.3333V20.5833C41.1667 21.158 40.9384 21.7091 40.5321 22.1154C40.1258 22.5217 39.5747 22.75 39 22.75C38.7127 22.75 38.4371 22.8641 38.234 23.0673C38.0308 23.2705 37.9167 23.546 37.9167 23.8333C37.9167 26.4192 36.8895 28.8992 35.061 30.7276C33.2325 32.5561 30.7525 33.5833 28.1667 33.5833C25.5808 33.5833 23.1009 32.5561 21.2724 30.7276C19.4439 28.8992 18.4167 26.4192 18.4167 23.8333ZM28.1667 35.75C28.8936 35.7488 29.6188 35.681 30.3334 35.5474V37.9167C30.3334 38.4913 30.1051 39.0424 29.6988 39.4487C29.2924 39.8551 28.7413 40.0834 28.1667 40.0834C27.5921 40.0834 27.041 39.8551 26.6346 39.4487C26.2283 39.0424 26 38.4913 26 37.9167V35.5474C26.7145 35.681 27.4398 35.7488 28.1667 35.75ZM2.16668 57.4167V52H13V57.4167C13 58.8533 12.4293 60.231 11.4135 61.2468C10.3977 62.2627 9.01994 62.8334 7.58335 62.8334C6.14676 62.8334 4.76901 62.2627 3.75319 61.2468C2.73737 60.231 2.16668 58.8533 2.16668 57.4167ZM15.1667 62.8334C14.859 62.8328 14.5549 62.7668 14.2747 62.6396C13.9945 62.5123 13.7446 62.3269 13.5417 62.0956C13.888 61.6535 14.1841 61.1742 14.4246 60.6667H15.1667C16.316 60.6667 17.4182 60.2101 18.2308 59.3975C19.0435 58.5848 19.5 57.4826 19.5 56.3334V54.1667C19.5 53.0174 19.0435 51.9152 18.2308 51.1026C17.4182 50.2899 16.316 49.8334 15.1667 49.8334H13C12.999 48.4104 13.2786 47.0012 13.8226 45.6864C14.3667 44.3716 15.1646 43.177 16.1708 42.1708C17.177 41.1646 18.3716 40.3667 19.6864 39.8226C21.0012 39.2786 22.4104 38.999 23.8334 39H23.9872C24.2236 39.9291 24.7629 40.7528 25.5198 41.3412C26.2767 41.9296 27.208 42.249 28.1667 42.249C29.1254 42.249 30.0567 41.9296 30.8136 41.3412C31.5705 40.7528 32.1097 39.9291 32.3462 39H32.5C33.9928 39.0013 35.4688 39.3146 36.8334 39.9198V57.4167H30.3334C29.7587 57.4167 29.2076 57.645 28.8013 58.0513C28.395 58.4576 28.1667 59.0087 28.1667 59.5834V62.8334H15.1667ZM15.1667 57.4167V52C15.7413 52 16.2924 52.2283 16.6987 52.6346C17.1051 53.041 17.3334 53.5921 17.3334 54.1667V56.3334C17.3334 56.908 17.1051 57.4591 16.6987 57.8654C16.2924 58.2717 15.7413 58.5 15.1667 58.5H15.08C15.1347 58.1414 15.1636 57.7794 15.1667 57.4167ZM30.3334 59.5834H36.8334V62.8334H30.3334V59.5834ZM62.8334 62.8334H39V59.5834H62.8334V62.8334Z" fill="#2145D1"/>
<path d="M50.9257 42.2506C47.3409 42.2506 44.4257 44.6805 44.4257 47.6673C44.4257 50.654 47.3409 53.0839 50.9257 53.0839C54.5104 53.0839 57.4257 50.654 57.4257 47.6673C57.4257 44.6805 54.5104 42.2506 50.9257 42.2506ZM50.9257 50.9173C48.5358 50.9173 46.5923 49.4591 46.5923 47.6673C46.5923 45.8754 48.5358 44.4173 50.9257 44.4173C53.3155 44.4173 55.259 45.8754 55.259 47.6673C55.259 49.4591 53.3155 50.9173 50.9257 50.9173Z" fill="#2145D1"/>
<path d="M7.58057 58.501C7.29325 58.501 7.0177 58.3869 6.81453 58.1837C6.61137 57.9806 6.49723 57.705 6.49723 57.4177V55.251C6.49723 54.9637 6.3831 54.6882 6.17993 54.485C5.97677 54.2818 5.70122 54.1677 5.4139 54.1677C5.12658 54.1677 4.85103 54.2818 4.64787 54.485C4.4447 54.6882 4.33057 54.9637 4.33057 55.251V57.4177C4.33057 58.2796 4.67298 59.1063 5.28247 59.7158C5.89196 60.3253 6.71861 60.6677 7.58057 60.6677C7.86788 60.6677 8.14343 60.5536 8.3466 60.3504C8.54976 60.1472 8.6639 59.8717 8.6639 59.5844C8.6639 59.297 8.54976 59.0215 8.3466 58.8183C8.14343 58.6152 7.86788 58.501 7.58057 58.501Z" fill="#2145D1"/>
<path d="M33.3744 27.7343C33.4598 27.6205 33.5219 27.491 33.5572 27.3531C33.5925 27.2153 33.6003 27.0719 33.5802 26.9311C33.5601 26.7902 33.5124 26.6547 33.4399 26.5323C33.3675 26.4099 33.2716 26.303 33.1578 26.2176C33.0439 26.1323 32.9144 26.0701 32.7766 26.0348C32.6388 25.9995 32.4954 25.9917 32.3545 26.0118C32.2137 26.032 32.0782 26.0796 31.9558 26.1521C31.8334 26.2246 31.7264 26.3205 31.6411 26.4343C31.2375 26.9725 30.7141 27.4093 30.1123 27.7101C29.5106 28.011 28.8471 28.1676 28.1744 28.1676C27.5017 28.1676 26.8382 28.011 26.2365 27.7101C25.6348 27.4093 25.1114 26.9725 24.7078 26.4343C24.6224 26.3205 24.5155 26.2246 24.393 26.1521C24.2706 26.0796 24.1351 26.032 23.9943 26.0118C23.8535 25.9917 23.71 25.9995 23.5722 26.0348C23.4344 26.0701 23.3049 26.1323 23.1911 26.2176C23.0773 26.303 22.9814 26.4099 22.9089 26.5323C22.8364 26.6547 22.7888 26.7902 22.7686 26.9311C22.7485 27.0719 22.7563 27.2153 22.7916 27.3531C22.827 27.491 22.8891 27.6205 22.9744 27.7343C23.5799 28.5416 24.365 29.1968 25.2675 29.6481C26.1701 30.0993 27.1653 30.3343 28.1744 30.3343C29.1835 30.3343 30.1787 30.0993 31.0813 29.6481C31.9839 29.1968 32.769 28.5416 33.3744 27.7343Z" fill="#2145D1"/>
<path d="M2.17713 46.5832C2.17713 46.8706 2.29127 47.1461 2.49443 47.3493C2.69759 47.5524 2.97314 47.6666 3.26046 47.6666C3.54778 47.6666 3.82333 47.5524 4.02649 47.3493C4.22966 47.1461 4.3438 46.8706 4.3438 46.5832C4.33333 46.2093 4.46143 45.8447 4.70346 45.5595C5.17379 44.9125 5.42712 44.1331 5.42712 43.3332C5.42712 42.5333 5.17379 41.754 4.70346 41.107C4.46143 40.8218 4.33333 40.4572 4.3438 40.0832C4.3438 39.7959 4.22966 39.5204 4.02649 39.3172C3.82333 39.114 3.54778 38.9999 3.26046 38.9999C2.97314 38.9999 2.69759 39.114 2.49443 39.3172C2.29127 39.5204 2.17713 39.7959 2.17713 40.0832C2.16566 40.8849 2.42015 41.6678 2.9008 42.3095C3.13358 42.5999 3.26044 42.961 3.26044 43.3332C3.26044 43.7055 3.13358 44.0666 2.9008 44.357C2.42015 44.9987 2.16566 45.7816 2.17713 46.5832Z" fill="#2145D1"/>
<path d="M7.59162 43.3338C7.59162 43.6211 7.70576 43.8967 7.90892 44.0999C8.11208 44.303 8.38763 44.4172 8.67495 44.4172C8.96227 44.4172 9.23782 44.303 9.44098 44.0999C9.64415 43.8967 9.75829 43.6211 9.75829 43.3338C9.74782 42.9599 9.87592 42.5953 10.118 42.3101C10.5883 41.6631 10.8416 40.8837 10.8416 40.0838C10.8416 39.2839 10.5883 38.5046 10.118 37.8576C9.87592 37.5724 9.74782 37.2077 9.75829 36.8338C9.75829 36.5465 9.64415 36.271 9.44098 36.0678C9.23782 35.8646 8.96227 35.7505 8.67495 35.7505C8.38763 35.7505 8.11208 35.8646 7.90892 36.0678C7.70576 36.271 7.59162 36.5465 7.59162 36.8338C7.58015 37.6355 7.83464 38.4184 8.31529 39.0601C8.54807 39.3505 8.67493 39.7116 8.67493 40.0838C8.67493 40.456 8.54807 40.8171 8.31529 41.1076C7.83464 41.7493 7.58015 42.5322 7.59162 43.3338Z" fill="#2145D1"/>
</g>
<defs>
<clipPath id="clip0_14_509">
<rect width="65" height="65" fill="white"/>
</clipPath>
</defs>
</svg>
